<svg xmlns="http://www.w3.org/2000/svg" xmlns:xlink="http://www.w3.org/1999/xlink" width="223" height="127" viewBox="0 0 223 127">
  <defs>
    <clipPath id="clip-path">
      <rect id="Rectangle_2" data-name="Rectangle 2" width="223" height="127"/>
    </clipPath>
  </defs>
  <g id="Artboard_2" data-name="Artboard – 2" clip-path="url(#clip-path)">
    <path id="Path_1" data-name="Path 1" d="M0,0H223V127H0Z" fill="#102639"/>
    <circle id="Ellipse_2" data-name="Ellipse 2" cx="9" cy="9" r="9" transform="translate(87 37)" fill="#ecf4d6"/>
    <circle id="Ellipse_3" data-name="Ellipse 3" cx="5" cy="5" r="5" transform="translate(31 74)" fill="#ecf4d6"/>
    <circle id="Ellipse_4" data-name="Ellipse 4" cx="5" cy="5" r="5" transform="translate(77 59)" fill="#ecf4d6"/>
    <path id="star-svgrepo-com" d="M16.015,1.889,19.309,8.3a1.569,1.569,0,0,0,1.184.827l7.367,1.029a1.5,1.5,0,0,1,.872,2.577l-5.332,5a1.475,1.475,0,0,0-.452,1.338l1.258,7.049a1.561,1.561,0,0,1-2.282,1.593L15.337,24.38a1.632,1.632,0,0,0-1.464,0L7.284,27.708A1.561,1.561,0,0,1,5,26.114l1.26-7.049a1.475,1.475,0,0,0-.452-1.338L.477,12.735a1.5,1.5,0,0,1,.872-2.577L8.716,9.129A1.569,1.569,0,0,0,9.9,8.3l3.294-6.414a1.6,1.6,0,0,1,2.821,0Z" transform="translate(30.999 22.534)" fill="#fff"/>
    <path id="star-svgrepo-com-2" data-name="star-svgrepo-com" d="M9.811,1.563l2.018,3.93A.961.961,0,0,0,12.555,6l4.513.63A.917.917,0,0,1,17.6,8.209l-3.266,3.059a.9.9,0,0,0-.277.82l.771,4.319a.956.956,0,0,1-1.4.976L9.4,15.344a1,1,0,0,0-.9,0L4.463,17.383a.956.956,0,0,1-1.4-.976l.771-4.319a.9.9,0,0,0-.277-.82L.293,8.209A.917.917,0,0,1,.827,6.63L5.34,6a.961.961,0,0,0,.726-.506l2.018-3.93a.981.981,0,0,1,1.727,0Z" transform="translate(78.106 86.534)" fill="#fff"/>
  </g>
</svg>
